<?xml version="1.0" standalone="no"?>
<!DOCTYPE svg PUBLIC "-//W3C//DTD SVG 20010904//EN"
 "http://www.w3.org/TR/2001/REC-SVG-20010904/DTD/svg10.dtd">
<svg version="1.0" xmlns="http://www.w3.org/2000/svg"
 width="1000px" height="1000px" viewBox="0 0 128.000000 128.000000"
 preserveAspectRatio="xMidYMid meet">

<g transform="translate(0.000000,128.000000) scale(0.100000,-0.100000)"
fill="#fff" stroke="none">
<path d="M532 1235 c-121 -38 -199 -138 -211 -275 l-6 -64 -38 -9 c-21 -5 -44
-19 -51 -31 -19 -30 -50 -441 -35 -468 6 -11 13 -18 15 -15 2 2 8 46 13 96 9
101 25 135 77 161 28 15 29 15 10 34 -39 39 9 139 68 139 61 0 87 -74 45 -127
l-20 -26 26 0 c14 0 37 -11 50 -25 l25 -24 0 30 c0 51 26 98 62 114 27 11 30
15 16 20 -12 5 -18 18 -18 41 0 63 66 97 105 54 16 -18 17 -34 4 -78 -2 -7 10
-19 29 -27 30 -13 32 -13 32 6 0 27 19 61 42 77 15 11 16 17 7 28 -31 38 26
98 71 74 17 -9 21 -19 18 -45 -3 -29 0 -35 21 -40 36 -9 43 6 35 74 -10 89
-28 102 -116 82 -42 -10 -40 -14 -52 98 -6 56 -31 90 -86 119 -50 25 -76 26
-138 7z m105 -89 c24 -21 28 -32 31 -94 l4 -71 -38 -10 c-77 -20 -215 -51
-231 -51 -13 0 -15 11 -11 65 3 51 10 73 33 106 56 78 155 104 212 55z"/>
<path d="M905 797 c-261 -136 -521 -370 -695 -626 l-38 -57 17 -39 17 -39 28
50 c153 265 418 533 698 705 93 58 95 59 82 59 -5 -1 -54 -24 -109 -53z"/>
<path d="M925 721 c-40 -17 -229 -164 -309 -242 l-81 -78 35 -1 c31 0 45 11
125 92 50 50 130 125 178 165 86 71 93 80 52 64z"/>
<path d="M480 345 c-11 -13 -7 -15 28 -15 23 0 45 6 52 15 11 13 7 15 -28 15
-23 0 -45 -6 -52 -15z"/>
<path d="M427 283 c-16 -15 -5 -23 32 -23 25 0 41 5 45 15 4 12 -3 15 -33 15
-21 0 -41 -3 -44 -7z"/>
</g>
</svg>
