<svg
  xmlns="http://www.w3.org/2000/svg"
  viewBox="0 0 487.582 487.582"
  width="100"
  height="100"
  fill="#000000"
>
  <path
    d="M472.936,200.703c-5.177-5.177-11.293-9.069-17.959-11.538c13.349-19.462,11.398-46.338-5.88-63.617
		c-5.425-5.425-11.799-9.336-18.592-11.742c4.674-7.716,7.175-16.583,7.175-25.836c0-13.356-5.201-25.912-14.646-35.355
		c-9.443-9.444-21.999-14.645-35.355-14.645c-9.253,0-18.12,2.501-25.836,7.175c-2.406-6.792-6.316-13.167-11.741-18.592
		c-19.496-19.494-51.217-19.495-70.711,0l-86.405,86.405c-2.481-6.326-6.251-12.135-11.2-17.084
		c-9.444-9.444-22-14.645-35.355-14.645s-25.912,5.201-35.355,14.645L38.369,168.58C13.626,193.323,0,226.22,0,261.211
		s13.626,67.888,38.369,92.631l83.438,83.438c24.742,24.743,57.639,38.37,92.63,38.37s67.889-13.626,92.631-38.37l165.867-165.866
		c9.444-9.444,14.646-22,14.646-35.356C487.582,222.703,482.38,210.147,472.936,200.703z M451.723,250.201L285.856,416.067
		c-19.076,19.077-44.44,29.583-71.418,29.583c-26.978,0-52.341-10.506-71.417-29.583l-83.438-83.438
		c-39.38-39.38-39.38-103.456,0-142.836l72.707-72.706c3.777-3.777,8.799-5.858,14.142-5.858s10.364,2.081,14.142,5.858
		c3.777,3.777,5.858,8.799,5.858,14.142s-2.081,10.364-5.858,14.142c0,0-56.568,56.569-56.568,56.569l21.213,21.213L300.604,47.766
		c7.798-7.798,20.487-7.798,28.285,0s7.798,20.486,0,28.285L217.141,187.798l21.213,21.213L373.538,73.828
		c3.777-3.777,8.8-5.858,14.142-5.858c5.343,0,10.365,2.081,14.143,5.858c3.777,3.777,5.858,8.8,5.858,14.142
		c0,5.342-2.081,10.364-5.858,14.142l-23.426,23.426c-0.01,0.01-111.758,111.758-111.758,111.758l21.213,21.213l111.748-111.748
		c7.798-7.798,20.487-7.798,28.285,0s7.798,20.487,0,28.285l-25.65,25.65c-0.008,0.008-86.098,86.097-86.098,86.097l21.213,21.213
		l86.094-86.094c3.777-3.775,8.798-5.854,14.138-5.854c5.343,0,10.365,2.081,14.143,5.858c3.777,3.777,5.858,8.8,5.858,14.142
		C457.582,241.4,455.5,246.423,451.723,250.201z" fill="#fff" stroke="#000" stroke-width="5"/>
</svg>
